<svg width="28" height="28" viewBox="0 0 28 28" fill="none" xmlns="http://www.w3.org/2000/svg">
<path d="M14 28C21.732 28 28 21.732 28 14C28 6.26801 21.732 0 14 0C6.26801 0 0 6.26801 0 14C0 21.732 6.26801 28 14 28Z" fill="#59A7FF"/>
<path fill-rule="evenodd" clip-rule="evenodd" d="M11.2719 5.52344C11.6485 5.52344 11.9539 5.82876 11.9539 6.20539C11.9539 6.58202 11.6485 6.88734 11.2719 6.88734H7.90617C7.34398 6.8881 6.88843 7.34365 6.88767 7.90584V11.2719C6.88767 11.6486 6.58228 11.954 6.20555 11.954C5.82883 11.954 5.52344 11.6486 5.52344 11.2719V7.90584C5.52501 6.5906 6.59093 5.52482 7.90617 5.52344H11.2719ZM22.4766 7.90584V11.2719C22.4766 11.6485 22.1712 11.9539 21.7946 11.9539C21.418 11.9539 21.1127 11.6485 21.1127 11.2719V7.90584C21.1118 7.34372 20.6563 6.88825 20.0942 6.88734H16.7279C16.3513 6.88734 16.046 6.58202 16.046 6.20539C16.046 5.82876 16.3513 5.52344 16.7279 5.52344H20.0942C21.4093 5.52497 22.475 6.59071 22.4766 7.90584H22.4766ZM22.4766 16.7281V20.0938C22.4751 21.409 21.4094 22.4749 20.0942 22.4766H16.7279C16.3512 22.4762 16.0461 22.1704 16.0466 21.7937C16.047 21.4176 16.3518 21.1127 16.7279 21.1123H20.0942C20.6563 21.1115 21.1118 20.656 21.1127 20.0938V16.7281C21.1127 16.3515 21.418 16.0461 21.7946 16.0461C22.1712 16.0461 22.4766 16.3515 22.4766 16.7281H22.4766ZM14 18.6102C16.5461 18.6102 18.6102 16.5461 18.6102 14C18.6102 11.4539 16.5461 9.38985 14 9.38985C11.4539 9.38985 9.38984 11.4539 9.38984 14C9.39286 16.5449 11.4551 18.6071 14 18.6102V18.6102ZM5.52344 16.7281C5.52344 16.3514 5.82883 16.046 6.20555 16.046C6.58228 16.046 6.88767 16.3514 6.88767 16.7281V20.0938C6.8883 20.6561 7.34393 21.1117 7.90617 21.1123H11.2719C11.6486 21.1123 11.954 21.4177 11.954 21.7944C11.954 22.1712 11.6486 22.4766 11.2719 22.4766H7.90617C6.59084 22.4751 5.52491 21.4092 5.52344 20.0938L5.52344 16.7281Z" fill="white"/>
</svg>
