<svg width="34" height="8" viewBox="0 0 34 8" fill="none" xmlns="http://www.w3.org/2000/svg">
<path d="M32 7.6275H34V0H32V7.6275Z" fill="#666666"/>
<path d="M28 7.6275H30V0H28V7.6275Z" fill="#666666"/>
<path d="M24 7.6275H26V0H24V7.6275Z" fill="#666666"/>
<path d="M20 7.6275H22V0H20V7.6275Z" fill="#666666"/>
<path d="M16 7.6275H18V0H16V7.6275Z" fill="#666666"/>
<path d="M12 7.6275H14L14 0H12V7.6275Z" fill="#666666"/>
<path d="M8 7.6275H10L10 0H8V7.6275Z" fill="#666666"/>
<path d="M4 7.6275H6L6 0H4L4 7.6275Z" fill="#666666"/>
<path d="M0 7.6275H2L2 0H0L0 7.6275Z" fill="#666666"/>
</svg>
