<svg width="28" height="28" viewBox="0 0 28 28" fill="none" xmlns="http://www.w3.org/2000/svg">
<path d="M14 28C21.732 28 28 21.732 28 14C28 6.26801 21.732 0 14 0C6.26801 0 0 6.26801 0 14C0 21.732 6.26801 28 14 28Z" fill="#59A7FF"/>
<path fill-rule="evenodd" clip-rule="evenodd" d="M16.8019 13.2368L12.9263 17.1123C14.4735 17.7055 16.2087 16.9321 16.8018 15.3848C17.0669 14.6934 17.0669 13.9283 16.8019 13.2368V13.2368ZM19.7851 10.2539C20.9543 11.176 21.9384 12.3111 22.6854 13.5992C22.9555 14.0351 22.9555 14.5864 22.6854 15.0223C20.6948 18.4059 17.4481 20.4258 14 20.4258C12.753 20.423 11.52 20.1624 10.3787 19.6601L11.9716 18.0673C14.0456 19.1883 16.6357 18.4158 17.7567 16.3418C18.4414 15.0752 18.4414 13.5487 17.7567 12.282L19.7851 10.2539ZM15.9406 10.5079L14.9752 11.473C13.4077 10.9346 11.7005 11.769 11.1622 13.3365C10.9452 13.9683 10.9452 14.6544 11.1622 15.2861L10.1968 16.2512C9.12411 14.1518 9.95646 11.5802 12.0559 10.5075C13.2759 9.88418 14.7209 9.88425 15.9409 10.5077L15.9406 10.5079ZM5.31481 13.5992C7.30467 10.2154 10.5521 8.1953 13.9998 8.1953C15.2125 8.1977 16.4123 8.44444 17.5275 8.92078L20.2357 6.21266C20.4839 5.96586 20.8849 5.96586 21.1331 6.21266C21.3799 6.46098 21.3799 6.86198 21.1331 7.1103L18.7188 9.52475L16.9837 11.2596L16.0869 12.1569L11.8464 16.3973L10.9491 17.2946L9.19773 19.046L6.45602 21.7875C6.20764 22.0343 5.8066 22.0343 5.55822 21.7875C5.31141 21.5392 5.31141 21.1382 5.55822 20.8899L8.13996 18.3082C7.00394 17.3962 6.04622 16.2821 5.31502 15.0221C5.04449 14.5863 5.04449 14.0348 5.31502 13.5991L5.31481 13.5992Z" fill="white"/>
</svg>

