<svg width="12" height="12" viewBox="0 0 12 12" fill="none" xmlns="http://www.w3.org/2000/svg">
<path d="M7.06127 6.00113L11.7801 1.28208C12.0733 0.989145 12.0733 0.513838 11.7801 0.220899C11.4869 -0.0722902 11.0122 -0.0722902 10.719 0.220899L6.00012 4.93995L1.28102 0.220899C0.987847 -0.0722902 0.51306 -0.0722902 0.219883 0.220899C-0.0732943 0.513838 -0.0732943 0.989145 0.219883 1.28208L4.93898 6.00113L0.219883 10.7202C-0.0732943 11.0131 -0.0732943 11.4884 0.219883 11.7814C0.366471 11.9277 0.558587 12.001 0.750453 12.001C0.942319 12.001 1.13444 11.9277 1.28102 11.7811L6.00012 7.06207L10.719 11.7811C10.8656 11.9277 11.0577 12.001 11.2495 12.001C11.4414 12.001 11.6335 11.9277 11.7801 11.7811C12.0733 11.4882 12.0733 11.0129 11.7801 10.7199L7.06127 6.00113Z" fill="#F0F0F0"/>
</svg>
