<svg width="28" height="28" viewBox="0 0 28 28" fill="none" xmlns="http://www.w3.org/2000/svg">
<path d="M18.9498 14.0001L17.1997 15.7501L11.2518 16.7482L7.30009 15.7501L13.9999 9.05029L17.6662 10.3338L18.9498 14.0001Z" fill="#EDF2FA"/>
<path d="M18.9498 14.0001L17.1997 15.7501L11.2518 16.7482L17.6662 10.3338L18.9498 14.0001Z" fill="#D9E6FB"/>
<path d="M26.9746 5.97465L21.4243 11.5255L22.6619 12.7625L20.1873 15.2377L12.7623 7.81271L15.2375 5.33808L16.4745 6.57567L22.0253 1.0254C23.392 -0.341799 25.608 -0.341799 26.9746 1.0254C28.3418 2.39205 28.3418 4.608 26.9746 5.97465Z" fill="#3279AF"/>
<path d="M26.9746 5.97464L21.4243 11.5255L22.6619 12.7625L20.1873 15.2377L16.4751 11.5255L26.9746 1.02539C28.3418 2.39204 28.3418 4.60799 26.9746 5.97464Z" fill="#1D54BD"/>
<path d="M17.1997 15.7501L7.93726 25.0126C7.02124 25.9286 5.72404 26.23 4.55646 25.9182L2.98746 27.4878C2.30386 28.1708 1.19589 28.1708 0.512289 27.4878C-0.170763 26.8042 -0.170763 25.6962 0.512289 25.0126L2.08183 23.4436C1.77011 22.276 2.07144 20.9788 2.98746 20.0628L7.30015 15.7501H17.1997Z" fill="#FD607A"/>
<path d="M17.1997 15.7501L7.93726 25.0126C7.02124 25.9286 5.72404 26.23 4.55646 25.9182L2.98746 27.4878C2.30386 28.1708 1.19589 28.1708 0.512287 27.4878L12.2499 15.7501H17.1997Z" fill="#E63981"/>
</svg>

