<svg width="28" height="25" viewBox="0 0 28 25" fill="none" xmlns="http://www.w3.org/2000/svg">
<path d="M26.317 10.0412C26.2025 10.0226 26.0865 10.014 25.9705 10.0155H6.21708L6.64781 9.81517C7.06883 9.6159 7.45186 9.34469 7.77972 9.01382L13.3191 3.47446C14.0486 2.77803 14.1712 1.6577 13.6096 0.819972C12.9559 -0.0727242 11.7024 -0.266551 10.8096 0.387115C10.7375 0.439955 10.6689 0.497552 10.6045 0.559532L0.587571 10.5765C-0.195251 11.3584 -0.19594 12.6269 0.586006 13.4097C0.586507 13.4102 0.58707 13.4107 0.587571 13.4112L10.6045 23.4282C11.3879 24.2094 12.6564 24.2077 13.4377 23.4242C13.4992 23.3626 13.5566 23.2969 13.6096 23.2278C14.1712 22.3901 14.0486 21.2698 13.3191 20.5733L7.78974 15.024C7.49581 14.7297 7.15786 14.483 6.78805 14.2927L6.18703 14.0223H25.8603C26.8837 14.0603 27.7816 13.3454 27.9738 12.3394C28.151 11.2473 27.4092 10.2184 26.317 10.0412Z" fill="#3B3B3B"/>
</svg>
