<svg width="28" height="25" viewBox="0 0 28 25" fill="none" xmlns="http://www.w3.org/2000/svg">
<path d="M1.68294 13.9718C1.79751 13.9904 1.91345 13.9989 2.02946 13.9974L21.7829 13.9974L21.3522 14.1978C20.9312 14.397 20.5481 14.6683 20.2203 14.9991L14.6809 20.5385C13.9514 21.2349 13.8288 22.3552 14.3904 23.193C15.0441 24.0857 16.2976 24.2795 17.1904 23.6258C17.2625 23.573 17.3311 23.5154 17.3955 23.4534L27.4124 13.4365C28.1952 12.6545 28.1959 11.3861 27.414 10.6033C27.4135 10.6028 27.4129 10.6022 27.4124 10.6017L17.3955 0.584769C16.612 -0.196488 15.3436 -0.194736 14.5623 0.588713C14.5008 0.65038 14.4434 0.715989 14.3904 0.785105C13.8288 1.62283 13.9514 2.74316 14.6809 3.43959L20.2102 8.98897C20.5042 9.28322 20.8421 9.52994 21.2119 9.7202L21.813 9.99066L2.13971 9.99066C1.1163 9.95266 0.218404 10.6676 0.0261413 11.6735C-0.150971 12.7657 0.590783 13.7946 1.68294 13.9718Z" fill="#3B3B3B"/>
</svg>