<svg width="28" height="28" viewBox="0 0 28 28" fill="none" xmlns="http://www.w3.org/2000/svg">
<circle cx="14" cy="14" r="14" fill="#59A7FF"/>
<path d="M21.3333 18.6667H19.558C19.2693 17.706 18.3867 17 17.3333 17C16.28 17 15.398 17.706 15.1087 18.6667H6.66666C6.29866 18.6667 6 18.9653 6 19.3333C6 19.7013 6.29866 20 6.66666 20H15.1087C15.3973 20.9607 16.28 21.6667 17.3333 21.6667C18.3866 21.6667 19.2687 20.9607 19.558 20H21.3333C21.702 20 22 19.7013 22 19.3333C22 18.9653 21.702 18.6667 21.3333 18.6667ZM17.3333 20.3333C16.782 20.3333 16.3333 19.8847 16.3333 19.3333C16.3333 18.782 16.782 18.3333 17.3333 18.3333C17.8847 18.3333 18.3333 18.782 18.3333 19.3333C18.3333 19.8847 17.8847 20.3333 17.3333 20.3333Z" fill="white"/>
<path d="M21.3333 8H19.558C19.2687 7.03934 18.3867 6.33334 17.3333 6.33334C16.28 6.33334 15.398 7.03934 15.1087 8H6.66666C6.29866 8 6 8.29866 6 8.66666C6 9.03466 6.29866 9.33332 6.66666 9.33332H15.1087C15.398 10.294 16.28 11 17.3333 11C18.3867 11 19.2687 10.294 19.558 9.33335H21.3333C21.702 9.33335 22 9.03469 22 8.66669C22 8.29869 21.702 8 21.3333 8ZM17.3333 9.66666C16.782 9.66666 16.3333 9.218 16.3333 8.66666C16.3333 8.11531 16.782 7.66666 17.3333 7.66666C17.8847 7.66666 18.3333 8.11531 18.3333 8.66666C18.3333 9.218 17.8847 9.66666 17.3333 9.66666Z" fill="white"/>
<path d="M21.3333 13.3333H12.8913C12.602 12.3727 11.72 11.6667 10.6667 11.6667C9.61337 11.6667 8.73134 12.3727 8.44203 13.3333H6.66666C6.29866 13.3333 6 13.632 6 14C6 14.368 6.29866 14.6667 6.66666 14.6667H8.442C8.73134 15.6273 9.61334 16.3333 10.6667 16.3333C11.72 16.3333 12.602 15.6273 12.8913 14.6667H21.3333C21.702 14.6667 22 14.368 22 14C22 13.632 21.702 13.3333 21.3333 13.3333ZM10.6667 15C10.1153 15 9.66666 14.5513 9.66666 14C9.66666 13.4487 10.1153 13 10.6667 13C11.218 13 11.6667 13.4487 11.6667 14C11.6667 14.5513 11.218 15 10.6667 15Z" fill="white"/>
</svg>

