<svg width="28" height="28" viewBox="0 0 28 28" fill="none" xmlns="http://www.w3.org/2000/svg">
<path d="M0.247372 27.7526C0.495991 28.0012 0.860893 28.0624 1.16698 27.9364L3.1854 27.1053L3.2352 24.7648L0.247372 27.7526Z" fill="#16202D"/>
<path d="M0.894695 24.8146L0.0635967 26.833C-0.0623751 27.139 -0.00124834 27.504 0.247371 27.7526L3.98208 25.5117L0.894695 24.8146Z" fill="#2D3E53"/>
<path d="M7.41802 25.3624L7.46782 21.4285L2.48822 26.4081L3.18534 27.1053L7.41802 25.3624Z" fill="#FFD19C"/>
<path d="M2.63757 20.582L0.894695 24.8146L2.48822 26.4081L7.71678 23.271L2.63757 20.582Z" fill="#FFF0BE"/>
<path d="M27.5049 2.88522L26.3099 1.69012L18.6412 9.95627L25.1148 7.66562L27.505 5.27542C28.165 4.61542 28.165 3.54528 27.5049 2.88522Z" fill="#E63981"/>
<path d="M26.3099 1.69012L25.1148 0.495021C24.4547 -0.165035 23.3846 -0.164979 22.7246 0.495021L20.3344 2.88527L19.5376 10.8527L26.3099 4.08032C26.9699 3.42032 26.9699 2.35018 26.3099 1.69012V1.69012Z" fill="#FD607A"/>
<path d="M16.7489 7.66567L23.3221 9.45834L25.1148 7.66566L23.9196 6.47057L16.7489 7.66567Z" fill="#DFF5FF"/>
<path d="M23.9196 6.47058L20.3343 2.88522L18.5416 4.6779L19.7367 10.6534L23.9196 6.47058Z" fill="white"/>
<path d="M6.22292 24.1673L7.41802 25.3624L23.3221 9.45834L22.127 8.26324L11.2643 13.3045L6.22292 24.1673Z" fill="#FFB24A"/>
<path d="M2.63614 20.5808L18.5378 4.67912L22.1226 8.26391L6.22093 24.1656L2.63614 20.5808Z" fill="#FFD23B"/>
</svg>
