<svg width="25" height="28" viewBox="0 0 25 28" fill="none" xmlns="http://www.w3.org/2000/svg">
<path d="M24.3931 0.634196V7.69381C24.3931 8.04482 24.1091 8.32876 23.7581 8.32876H20.3867C20.0364 8.32876 19.7525 8.04482 19.7525 7.69381V5.27553C19.7525 4.92452 19.4678 4.64058 19.1175 4.64058H15.1521C14.8011 4.64058 14.5172 4.92452 14.5172 5.27553V22.7245C14.5172 23.0755 14.8011 23.3594 15.1521 23.3594H16.8863C17.2373 23.3594 17.5212 23.6434 17.5212 23.9944V27.3658C17.5212 27.7161 17.2373 28 16.8863 28H7.50676C7.15575 28 6.87182 27.7161 6.87182 27.3658V23.9944C6.87182 23.6434 7.15575 23.3594 7.50676 23.3594H9.24092C9.59193 23.3594 9.87586 23.0755 9.87586 22.7245V5.27553C9.87586 4.92452 9.59193 4.64058 9.24092 4.64058H5.27553C4.92526 4.64058 4.64058 4.92452 4.64058 5.27553V7.69382C4.64058 8.04482 4.35665 8.32876 4.00639 8.32876H0.634941C0.283935 8.32876 0 8.04482 0 7.69382V0.634196C0 0.283935 0.283935 0 0.634941 0H23.7581C24.1091 0 24.3931 0.283935 24.3931 0.634196Z" fill="#59A7FF"/>
<path d="M24.3931 0.634197V7.69382C24.3931 8.04482 24.1091 8.32876 23.7581 8.32876H20.3867C20.0364 8.32876 19.7525 8.04482 19.7525 7.69382V5.27553C19.7525 4.92452 19.4678 4.64058 19.1175 4.64058H15.1521C14.8011 4.64058 14.5172 4.92452 14.5172 5.27553V22.7245C14.5172 23.0755 14.8011 23.3594 15.1521 23.3594H16.8863C17.2373 23.3594 17.5212 23.6434 17.5212 23.9944V27.3658C17.5212 27.7161 17.2373 28 16.8863 28H12.1965V0H23.7581C24.1091 0 24.3931 0.283935 24.3931 0.634196V0.634197Z" fill="#0082FF"/>
</svg>
