<svg width="28" height="29" viewBox="0 0 28 29" fill="none" xmlns="http://www.w3.org/2000/svg">
<path d="M2.86116 15.5886L15.0308 27.7583C16.4642 29.1916 20.4129 27.5686 23.8486 24.1274C27.2842 20.6862 28.9127 16.7431 27.4794 15.3097L15.3097 3.14004C13.8763 1.70667 9.9276 3.33524 6.49198 6.77086C3.05636 10.2121 1.43337 14.1552 2.86116 15.5886Z" fill="#EAEAE0"/>
<path d="M2.86116 15.5886L15.0308 27.7583C16.4642 29.1916 20.4129 27.5686 23.8486 24.1274C27.2842 20.6862 28.9127 16.7431 27.4794 15.3097L15.3097 3.14004C13.8763 1.70667 9.9276 3.33524 6.49198 6.77086C3.05636 10.2121 1.43337 14.1552 2.86116 15.5886Z" fill="#FFE3A8"/>
<path d="M8.13171 13.6644H2.37035C2.27554 14.501 2.42613 15.1535 2.86116 15.5886L15.0308 27.7582C16.4642 29.1916 20.4129 27.563 23.8486 24.1274C24.3394 23.6366 24.7967 23.1291 25.215 22.6215C21.3276 24.8413 14.6014 25.0923 13.2684 23.7593C11.3721 21.863 7.69668 17.8474 7.69668 17.8474C8.31018 16.3973 8.13171 13.6644 8.13171 13.6644Z" fill="#FFCB5C"/>
<path d="M7.18357 7.46245C4.13278 10.5188 2.50421 13.8485 3.55274 14.897C4.60685 15.9455 7.93093 14.3225 10.9873 11.2662C14.0437 8.2098 15.6722 4.88015 14.6181 3.83162C13.564 2.78309 10.2399 4.40608 7.18357 7.46245H7.18357Z" fill="#275E87"/>
<path d="M13.2684 14.6627C13.8845 14.6627 14.3839 14.1633 14.3839 13.5473C14.3839 12.9312 13.8845 12.4318 13.2684 12.4318C12.6524 12.4318 12.1529 12.9312 12.1529 13.5473C12.1529 14.1633 12.6524 14.6627 13.2684 14.6627Z" fill="#275E87"/>
<path d="M13.0732 13.3521C13.0955 13.3298 15.5161 10.8925 17.7693 8.14844C18.1876 7.64091 18.5613 7.16684 18.8959 6.72623C21.6846 3.06194 21.7905 1.65088 21.573 1.12104C21.4168 0.747359 20.9762 0.55773 20.2512 0.55773C18.182 0.55773 15.5384 2.43728 14.9583 2.87231C14.7743 2.7775 14.5735 2.70499 14.3504 2.66595L14.4675 2.54883C14.4731 2.54325 14.4843 2.5321 14.4898 2.52652C14.6181 2.42055 17.7247 0 20.2512 0C21.2216 0 21.8407 0.306752 22.0917 0.909101C22.5546 2.02456 21.6399 4.06586 19.2975 7.1278C18.9628 7.5684 18.6003 8.02574 18.2043 8.50539C15.9344 11.2717 13.4915 13.7257 13.4692 13.7481L13.0732 13.3521L13.0732 13.3521Z" fill="#275E87"/>
<path d="M4.61243 10.569C6.18523 10.569 6.74854 12.4262 9.72682 12.4318C8.46635 13.5138 7.21703 14.3225 6.15734 14.7854C6.15734 18.1764 4.8913 20.0225 3.84834 20.0225C2.80538 20.0225 2.88347 24.1107 1.72896 24.1107C0.574462 24.1107 0 20.056 0 16.1909C0 12.3258 1.82378 10.569 4.61243 10.569Z" fill="#4893CC"/>
<path d="M3.84834 20.0225C4.88572 20.0225 6.15734 18.1764 6.15734 14.7854C6.76527 14.5233 7.43455 14.144 8.13171 13.6644C5.29844 13.6644 4.43396 13.8317 4.43396 15.4491C4.43396 17.0666 3.5137 19.0465 2.56556 19.0465C1.72897 19.0465 1.63415 21.9355 0.669277 22.5937C0.936987 23.5307 1.29394 24.1107 1.72897 24.1107C2.88347 24.1107 2.81096 20.0225 3.84834 20.0225Z" fill="#3279AF"/>
</svg>
