<svg width="29" height="28" viewBox="0 0 29 28" fill="none" xmlns="http://www.w3.org/2000/svg">
<path d="M0.239706 0.240774C0.00443159 0.476596 -0.0649314 0.831396 0.0641121 1.1386L11.1368 27.4974C11.2654 27.8037 11.5645 28 11.8921 28C11.9146 28 11.9372 27.9991 11.9599 27.9972C12.3135 27.968 12.6081 27.7145 12.6901 27.3691L15.4507 15.7352C15.4951 15.5484 15.6413 15.4027 15.8282 15.3592L27.3736 12.6701C27.72 12.5895 27.9749 12.2944 28.0047 11.9398C28.0345 11.5851 27.8325 11.2515 27.5044 11.1141L1.13644 0.063704C0.829453 -0.0650107 0.474981 0.00495361 0.239706 0.240776V0.240774Z" fill="#59A7FF"/>
<path d="M0.239706 0.240778C0.00443159 0.4766 -0.0649314 0.831399 0.0641121 1.13861L11.1368 27.4975C11.2654 27.8037 11.5645 28 11.8921 28C11.9146 28 11.9372 27.9991 11.9599 27.9972C12.3135 27.968 12.6081 27.7145 12.6901 27.3691L15.4507 15.7352C15.4733 15.6403 15.5223 15.5562 15.5894 15.4905L0.247092 0.233887C0.244684 0.236239 0.242114 0.238372 0.239706 0.240779V0.240778Z" fill="#0082FF"/>
</svg>
