<svg width="28" height="28" viewBox="0 0 28 28" fill="none" xmlns="http://www.w3.org/2000/svg">
<path d="M14 28C21.732 28 28 21.732 28 14C28 6.26801 21.732 0 14 0C6.26801 0 0 6.26801 0 14C0 21.732 6.26801 28 14 28Z" fill="#59A7FF"/>
<path fill-rule="evenodd" clip-rule="evenodd" d="M15.5696 18.5527V11.0562C15.5696 10.6786 15.8765 10.3726 16.2557 10.3726C16.6313 10.3726 16.9382 10.6786 16.9382 11.0562V18.5527C16.9382 18.9301 16.6313 19.2363 16.2557 19.2363C15.8765 19.2363 15.5696 18.9301 15.5696 18.5527ZM11.0617 11.0562C11.0617 10.6786 11.3669 10.3726 11.7442 10.3726C12.1235 10.3726 12.4286 10.6786 12.4286 11.0562V18.5527C12.4286 18.9301 12.1235 19.2363 11.7442 19.2363C11.3669 19.2363 11.0617 18.9301 11.0617 18.5527V11.0562ZM9.26275 23.5703H18.7372L20.3369 8.89798H20.9436C21.3192 8.89798 21.6279 8.59042 21.6279 8.21455C21.6279 7.83852 21.3192 7.53096 20.9436 7.53096H7.05463C6.67898 7.53096 6.37213 7.83852 6.37213 8.21455C6.37213 8.59037 6.67898 8.89798 7.05463 8.89798H7.66314L9.26275 23.5703ZM14 4.42969C15.2698 4.42969 16.4568 5.10639 17.1288 6.16372H10.873C11.5538 5.09354 12.7214 4.42969 14 4.42969Z" fill="white"/>
</svg>
