<svg width="28" height="28" viewBox="0 0 28 28" fill="none" xmlns="http://www.w3.org/2000/svg">
<path d="M9.45822 23.3222L6.47046 26.31L7.66555 27.5051C8.32566 28.1652 9.39608 28.1648 10.0557 27.5051L11.8484 25.7124L9.45822 23.3222Z" fill="#DB3916"/>
<path d="M2.2876 16.1516L0.494934 17.9443C-0.164781 18.604 -0.165175 19.6744 0.494934 20.3344L6.47046 26.31C7.13057 26.9701 8.20098 26.9697 8.86064 26.31L10.6533 24.5173L2.2876 16.1516Z" fill="#FC5A37"/>
<path d="M10.6533 22.1271L9.45822 25.7125C10.1183 26.3726 11.1887 26.3722 11.8484 25.7125L13.0435 24.5174L10.6533 22.1271Z" fill="#FFF2D4"/>
<path d="M3.48269 14.9565L2.2876 16.1516C1.62789 16.8113 1.62749 17.8817 2.2876 18.5418L9.45822 25.7124L11.8484 23.3222L3.48269 14.9565Z" fill="white"/>
<path d="M12.446 20.3344L10.6533 24.5173C11.3134 25.1774 12.3838 25.177 13.0435 24.5173L14.8362 22.7246L12.446 20.3344Z" fill="#DB3916"/>
<path d="M5.27536 13.1638L3.48269 14.9565C2.82298 15.6162 2.82259 16.6866 3.48269 17.3467L10.6533 24.5173L13.6411 21.5295L5.27536 13.1638Z" fill="#FC5A37"/>
<path d="M21.1706 16.3902L14.8362 22.7247C14.1765 23.3844 13.106 23.3848 12.446 22.7247L17.5853 9.21962L21.1706 16.3902Z" fill="#A42B10"/>
<path d="M19.9755 15.1951L12.446 22.7246L5.27536 15.554C4.61525 14.8939 4.61565 13.8235 5.27536 13.1638L11.6098 6.82939L17.5853 9.21958L19.9755 15.1951Z" fill="#DB3916"/>
<path d="M27.5051 7.66555L26.31 6.47046L19.9755 15.1951L21.1706 16.3902L27.5051 10.0557C28.1648 9.39608 28.1652 8.32566 27.5051 7.66555L27.5051 7.66555Z" fill="#1D54BD"/>
<path d="M26.31 8.86064L19.9755 15.1951L11.6098 6.82938L17.9443 0.494934C18.604 -0.164781 19.6744 -0.165175 20.3344 0.494934L26.31 6.47046C26.9701 7.13057 26.9697 8.20098 26.31 8.86064H26.31Z" fill="#487ED2"/>
</svg>
